# This file uses centimeters as units for non-parametric coordinates.

mtllib trianglePlane.mtl
g default
v 0.500000 -0.544323 0.383020
v 0.500000 0.191249 0.436908
v 0.500000 0.154547 -0.539776
v 0.500000 -0.514662 -0.635374
v 0.500000 0.500000 -0.030062
v 0.500000 0.032666 0.002383
v 0.500000 -0.500000 0.016511
vt 0.663333 0.000000
vt 0.663333 0.250000
vt 1.000000 0.000000
vt 1.000000 0.250000
vt 0.841788 0.250000
vt 0.830864 0.133166
vt 0.826108 0.000000
vn 1.000000 -0.000000 0.000000
vn 1.000000 0.000000 0.000000
vn 1.000000 -0.000000 0.000000
vn 1.000000 0.000000 0.000000
vn 1.000000 -0.000000 0.000000
vn 1.000000 0.000000 0.000000
vn 1.000000 0.000000 0.000000
s 1
g pCube1
usemtl initialShadingGroup
f 6/6/1 4/3/2 3/4/3
f 2/2/4 6/6/1 5/5/5
f 1/1/6 7/7/7 6/6/1
f 6/6/1 3/4/3 5/5/5
f 1/1/6 6/6/1 2/2/4
f 6/6/1 7/7/7 4/3/2
